# xmcd
#
# Track frame offsets: 
#        150
#        29938
#        46552
#        62985
#        77427
#        96515
#        119040
#        131246
#        143648
#        166286
#        185770
#        207986
#        216115
#        240510
#        260697
#        282294
#        300642
#
# Disc length: 4316 seconds
#
# Revision: 0
# Processed by: cddbd v1.5.2PL0 Copyright (c) Steve Scherf et al.
# Submitted via: ExactAudioCopyFreeDBPlugin 1.0
#
DISCID=0710da11
DTITLE=Max Herre - Athen
DYEAR=2019
DGENRE=No, thanks.
TTITLE0=Athen
TTITLE1=Villa auf der Klippe
TTITLE2=Terminal C (7. Sek)
TTITLE3=Siebzehn
TTITLE4=Lass gehen
TTITLE5=17. September
TTITLE6=Nachts
TTITLE7=Diebesgut
TTITLE8=Dunkles Kapitel
TTITLE9=Sans Papiers
TTITLE10=Fälscher
TTITLE11=Konny Kujau
TTITLE12=Das Wenigste
TTITLE13=Die Box
TTITLE14=Alte Turnhalle
TTITLE15=Das Wenigste
TTITLE16=Dunkles Kapitel
EXTD=
EXTT0=
EXTT1=
EXTT2=
EXTT3=
EXTT4=
EXTT5=
EXTT6=
EXTT7=
EXTT8=
EXTT9=
EXTT10=
EXTT11=
EXTT12=
EXTT13=
EXTT14=
EXTT15=
EXTT16=
PLAYORDER=
